<?xml version="1.0" encoding="UTF-8"?>
<svg width="585px" height="62px" viewBox="0 0 585 62" version="1.1" xmlns="http://www.w3.org/2000/svg" xmlns:xlink="http://www.w3.org/1999/xlink">
    <title>Group-16</title>
    <g id="Pitchdeck" stroke="none" stroke-width="1" fill="none" fill-rule="evenodd">
        <g id="logo-1" transform="translate(-102, 0)" fill="#12d06f" fill-rule="nonzero">
            <g id="Group-16" transform="translate(102.6158, 0.0014)">
                <path d="M22.383,51.997 C25.711,51.997 28.495,50.922 30.733,48.769 C32.972,46.617 34.091,43.475 34.091,39.342 L34.091,38.482 C34.091,34.35 32.985,31.207 30.776,29.056 C28.566,26.903 25.769,25.827 22.383,25.827 C19.054,25.827 16.271,26.903 14.032,29.056 C11.794,31.207 10.675,34.35 10.675,38.482 L10.675,39.342 C10.675,43.475 11.794,46.617 14.032,48.769 C16.271,50.922 19.054,51.997 22.383,51.997 M25.654,61.467 C21.808,61.467 18.853,60.807 16.787,59.487 C14.721,58.167 13.2,56.704 12.224,55.097 L10.675,55.097 L10.675,60.262 L0,60.262 L0,0 L10.847,0 L10.847,22.469 L12.397,22.469 C13.028,21.436 13.874,20.461 14.936,19.543 C15.998,18.625 17.403,17.864 19.155,17.261 C20.904,16.659 23.072,16.357 25.654,16.357 C29.098,16.357 32.283,17.205 35.21,18.896 C38.137,20.59 40.489,23.072 42.269,26.343 C44.047,29.615 44.938,33.575 44.938,38.224 L44.938,39.601 C44.938,44.249 44.047,48.209 42.269,51.481 C40.489,54.752 38.137,57.235 35.21,58.928 C32.283,60.62 29.098,61.467 25.654,61.467" id="Fill-1"></path>
                <polygon id="Fill-3" points="51.9379 60.2616 62.7849 60.2616 62.7849 0.0006 51.9379 0.0006"></polygon>
                <path d="M92.1673,51.8251 C95.4953,51.8251 98.2503,50.7491 100.4313,48.5971 C102.6123,46.4451 103.7033,43.3601 103.7033,39.3421 L103.7033,38.4821 C103.7033,34.4651 102.6273,31.3791 100.4743,29.2271 C98.3223,27.0751 95.5533,25.9991 92.1673,25.9991 C88.8383,25.9991 86.0833,27.0751 83.9033,29.2271 C81.7213,31.3791 80.6313,34.4651 80.6313,38.4821 L80.6313,39.3421 C80.6313,43.3601 81.7213,46.4451 83.9033,48.5971 C86.0833,50.7491 88.8383,51.8251 92.1673,51.8251 M92.1673,61.4671 C87.9193,61.4671 84.1033,60.6061 80.7173,58.8851 C77.3303,57.1631 74.6623,54.6661 72.7113,51.3951 C70.7593,48.1231 69.7853,44.1931 69.7853,39.6011 L69.7853,38.2231 C69.7853,33.6331 70.7593,29.7011 72.7113,26.4291 C74.6623,23.1581 77.3303,20.6611 80.7173,18.9401 C84.1033,17.2181 87.9193,16.3571 92.1673,16.3571 C96.4143,16.3571 100.2303,17.2181 103.6173,18.9401 C107.0033,20.6611 109.6713,23.1581 111.6233,26.4291 C113.5733,29.7011 114.5503,33.6331 114.5503,38.2231 L114.5503,39.6011 C114.5503,44.1931 113.5733,48.1231 111.6233,51.3951 C109.6713,54.6661 107.0033,57.1631 103.6173,58.8851 C100.2303,60.6061 96.4143,61.4671 92.1673,61.4671" id="Fill-5"></path>
                <path d="M141.6745,61.4672 C137.5425,61.4672 133.7975,60.6062 130.4405,58.8842 C127.0825,57.1632 124.4275,54.6662 122.4765,51.3952 C120.5255,48.1232 119.5505,44.1632 119.5505,39.5152 L119.5505,38.3092 C119.5505,33.6612 120.5255,29.7012 122.4765,26.4292 C124.4275,23.1582 127.0825,20.6612 130.4405,18.9402 C133.7975,17.2182 137.5425,16.3572 141.6745,16.3572 C145.7485,16.3572 149.2505,17.0752 152.1775,18.5092 C155.1045,19.9452 157.4715,21.9102 159.2795,24.4062 C161.0875,26.9032 162.2775,29.7302 162.8525,32.8862 L152.3495,35.1242 C152.1195,33.4022 151.6025,31.8532 150.7995,30.4762 C149.9955,29.0982 148.8625,28.0092 147.3995,27.2042 C145.9355,26.4012 144.1125,25.9992 141.9325,25.9992 C139.7515,25.9992 137.7855,26.4722 136.0355,27.4192 C134.2845,28.3662 132.9065,29.7732 131.9035,31.6372 C130.8985,33.5032 130.3965,35.7852 130.3965,38.4822 L130.3965,39.3422 C130.3965,42.0402 130.8985,44.3222 131.9035,46.1862 C132.9065,48.0522 134.2845,49.4582 136.0355,50.4042 C137.7855,51.3512 139.7515,51.8252 141.9325,51.8252 C145.2045,51.8252 147.6855,50.9792 149.3795,49.2852 C151.0715,47.5932 152.1475,45.3682 152.6075,42.6132 L163.1105,45.1102 C162.3635,48.1532 161.0875,50.9222 159.2795,53.4172 C157.4715,55.9142 155.1045,57.8812 152.1775,59.3152 C149.2505,60.7492 145.7485,61.4672 141.6745,61.4672" id="Fill-6"></path>
                <polygon id="Fill-7" points="170.1102 60.2616 170.1102 0.0006 180.9572 0.0006 180.9572 33.3166 182.5062 33.3166 196.6252 17.5626 210.7442 17.5626 191.0292 38.2236 211.4332 60.2616 197.4862 60.2616 182.5062 43.3026 180.9572 43.3026 180.9572 60.2616"></polygon>
                <path d="M240.5651,60.2616 L240.5651,17.5626 L251.2401,17.5626 L251.2401,22.3836 L252.7891,22.3836 C253.4201,20.6616 254.4681,19.4006 255.9311,18.5946 C257.3951,17.7926 259.1021,17.3906 261.0541,17.3906 L266.2191,17.3906 L266.2191,27.0316 L260.8811,27.0316 C258.1271,27.0316 255.8591,27.7636 254.0811,29.2276 C252.3011,30.6906 251.4121,32.9436 251.4121,35.9856 L251.4121,60.2616 L240.5651,60.2616 Z" id="Fill-8"></path>
                <path d="M281.3241,34.0053 L301.2971,34.0053 C301.0671,31.5383 300.0771,29.5583 298.3271,28.0653 C296.5751,26.5733 294.2941,25.8273 291.4821,25.8273 C288.5561,25.8273 286.2311,26.5733 284.5091,28.0653 C282.7881,29.5583 281.7251,31.5383 281.3241,34.0053 M291.7411,61.4673 C287.4931,61.4673 283.7481,60.5633 280.5071,58.7553 C277.2631,56.9473 274.7381,54.3943 272.9311,51.0933 C271.1231,47.7943 270.2191,43.9043 270.2191,39.4283 L270.2191,38.3953 C270.2191,33.9193 271.1081,30.0313 272.8871,26.7313 C274.6661,23.4313 277.1621,20.8773 280.3771,19.0693 C283.5901,17.2613 287.3211,16.3573 291.5681,16.3573 C295.7581,16.3573 299.4031,17.2913 302.5021,19.1553 C305.6011,21.0213 308.0111,23.6033 309.7331,26.9033 C311.4551,30.2043 312.3161,34.0343 312.3161,38.3953 L312.3161,42.0973 L281.2381,42.0973 C281.3531,45.0243 282.4431,47.4063 284.5091,49.2423 C286.5751,51.0803 289.1001,51.9973 292.0851,51.9973 C295.1271,51.9973 297.3641,51.3383 298.8001,50.0173 C300.2341,48.6973 301.3251,47.2343 302.0711,45.6273 L310.9381,50.2753 C310.1341,51.7693 308.9721,53.3893 307.4521,55.1403 C305.9301,56.8913 303.9071,58.3833 301.3821,59.6163 C298.8571,60.8493 295.6431,61.4673 291.7411,61.4673" id="Fill-9"></path>
                <path d="M338.4602,61.4672 C332.8922,61.4672 328.3302,60.2612 324.7722,57.8512 C321.2132,55.4412 319.0602,51.9972 318.3152,47.5212 L328.3012,44.9392 C328.7022,46.9472 329.3772,48.5262 330.3252,49.6732 C331.2712,50.8212 332.4472,51.6392 333.8542,52.1262 C335.2592,52.6142 336.7952,52.8582 338.4602,52.8582 C340.9842,52.8582 342.8502,52.4142 344.0562,51.5242 C345.2602,50.6352 345.8642,49.5302 345.8642,48.2092 C345.8642,46.8902 345.2892,45.8712 344.1412,45.1542 C342.9932,44.4362 341.1572,43.8482 338.6322,43.3882 L336.2212,42.9582 C333.2372,42.3852 330.5102,41.5952 328.0432,40.5912 C325.5752,39.5872 323.5952,38.1952 322.1032,36.4162 C320.6102,34.6372 319.8652,32.3422 319.8652,29.5282 C319.8652,25.2822 321.4142,22.0252 324.5132,19.7582 C327.6122,17.4912 331.6872,16.3572 336.7382,16.3572 C341.5012,16.3572 345.4612,17.4202 348.6182,19.5432 C351.7742,21.6662 353.8402,24.4492 354.8162,27.8932 L344.7442,30.9922 C344.2842,28.8122 343.3522,27.2622 341.9472,26.3432 C340.5392,25.4262 338.8042,24.9662 336.7382,24.9662 C334.6722,24.9662 333.0932,25.3252 332.0032,26.0422 C330.9122,26.7602 330.3682,27.7502 330.3682,29.0122 C330.3682,30.3892 330.9402,31.4092 332.0892,32.0682 C333.2372,32.7282 334.7862,33.2302 336.7382,33.5752 L339.1492,34.0052 C342.3622,34.5792 345.2742,35.3402 347.8862,36.2862 C350.4972,37.2332 352.5632,38.5832 354.0842,40.3332 C355.6042,42.0842 356.3662,44.4512 356.3662,47.4342 C356.3662,51.9112 354.7442,55.3692 351.5022,57.8082 C348.2592,60.2482 343.9122,61.4672 338.4602,61.4672" id="Fill-10"></path>
                <path d="M374.4712,34.0053 L394.4442,34.0053 C394.2142,31.5383 393.2242,29.5583 391.4742,28.0653 C389.7222,26.5733 387.4412,25.8273 384.6292,25.8273 C381.7032,25.8273 379.3782,26.5733 377.6562,28.0653 C375.9352,29.5583 374.8722,31.5383 374.4712,34.0053 M384.8882,61.4673 C380.6402,61.4673 376.8952,60.5633 373.6542,58.7553 C370.4102,56.9473 367.8862,54.3943 366.0782,51.0933 C364.2702,47.7943 363.3662,43.9043 363.3662,39.4283 L363.3662,38.3953 C363.3662,33.9193 364.2552,30.0313 366.0342,26.7313 C367.8132,23.4313 370.3092,20.8773 373.5242,19.0693 C376.7372,17.2613 380.4682,16.3573 384.7162,16.3573 C388.9052,16.3573 392.5502,17.2913 395.6492,19.1553 C398.7482,21.0213 401.1582,23.6033 402.8802,26.9033 C404.6022,30.2043 405.4632,34.0343 405.4632,38.3953 L405.4632,42.0973 L374.3852,42.0973 C374.5002,45.0243 375.5902,47.4063 377.6562,49.2423 C379.7222,51.0803 382.2472,51.9973 385.2322,51.9973 C388.2742,51.9973 390.5112,51.3383 391.9472,50.0173 C393.3812,48.6973 394.4722,47.2343 395.2182,45.6273 L404.0852,50.2753 C403.2812,51.7693 402.1192,53.3893 400.5992,55.1403 C399.0772,56.8913 397.0542,58.3833 394.5292,59.6163 C392.0042,60.8493 388.7902,61.4673 384.8882,61.4673" id="Fill-11"></path>
                <path d="M430.3689,52.6864 C433.4099,52.6864 435.8919,51.8394 437.8159,50.1464 C439.7379,48.4544 440.6999,46.2014 440.6999,43.3884 L440.6999,42.5274 L429.7669,42.5274 C427.7569,42.5274 426.1789,42.9584 425.0309,43.8194 C423.8829,44.6804 423.3099,45.8854 423.3099,47.4344 C423.3099,48.9844 423.9119,50.2474 425.1179,51.2234 C426.3229,52.1994 428.0729,52.6864 430.3689,52.6864 M428.4749,61.4674 C425.4319,61.4674 422.7069,60.9364 420.2959,59.8744 C417.8859,58.8124 415.9769,57.2634 414.5719,55.2254 C413.1649,53.1894 412.4629,50.7064 412.4629,47.7784 C412.4629,44.8524 413.1649,42.3984 414.5719,40.4184 C415.9769,38.4384 417.9289,36.9474 420.4259,35.9424 C422.9219,34.9384 425.7759,34.4354 428.9919,34.4354 L440.6999,34.4354 L440.6999,32.0244 C440.6999,30.0174 440.0669,28.3664 438.8059,27.0754 C437.5419,25.7844 435.5339,25.1384 432.7789,25.1384 C430.0809,25.1384 428.0729,25.7554 426.7529,26.9884 C425.4319,28.2244 424.5719,29.8164 424.1699,31.7674 L414.1849,28.4094 C414.8729,26.2284 415.9769,24.2334 417.4989,22.4264 C419.0179,20.6194 421.0569,19.1554 423.6109,18.0364 C426.1639,16.9164 429.2779,16.3574 432.9519,16.3574 C438.5749,16.3574 443.0239,17.7644 446.2949,20.5754 C449.5659,23.3884 451.2019,27.4624 451.2019,32.8004 L451.2019,48.7264 C451.2019,50.4484 452.0049,51.3084 453.6129,51.3084 L457.0559,51.3084 L457.0559,60.2614 L449.8249,60.2614 C447.6999,60.2614 445.9509,59.7454 444.5739,58.7114 C443.1959,57.6794 442.5069,56.3014 442.5069,54.5804 L442.5069,54.4934 L440.8719,54.4934 C440.6409,55.1824 440.1249,56.0864 439.3219,57.2064 C438.5179,58.3244 437.2559,59.3154 435.5339,60.1754 C433.8119,61.0374 431.4579,61.4674 428.4749,61.4674" id="Fill-12"></path>
                <path d="M464.0558,60.2616 L464.0558,17.5626 L474.7308,17.5626 L474.7308,22.3836 L476.2798,22.3836 C476.9108,20.6616 477.9588,19.4006 479.4218,18.5946 C480.8858,17.7926 482.5928,17.3906 484.5448,17.3906 L489.7098,17.3906 L489.7098,27.0316 L484.3718,27.0316 C481.6178,27.0316 479.3498,27.7636 477.5718,29.2276 C475.7918,30.6906 474.9028,32.9436 474.9028,35.9856 L474.9028,60.2616 L464.0558,60.2616 Z" id="Fill-13"></path>
                <path d="M513.8341,61.4672 C509.7021,61.4672 505.9571,60.6062 502.6001,58.8842 C499.2421,57.1632 496.5871,54.6662 494.6361,51.3952 C492.6851,48.1232 491.7101,44.1632 491.7101,39.5152 L491.7101,38.3092 C491.7101,33.6612 492.6851,29.7012 494.6361,26.4292 C496.5871,23.1582 499.2421,20.6612 502.6001,18.9402 C505.9571,17.2182 509.7021,16.3572 513.8341,16.3572 C517.9081,16.3572 521.4091,17.0752 524.3371,18.5092 C527.2641,19.9452 529.6311,21.9102 531.4391,24.4062 C533.2471,26.9032 534.4371,29.7302 535.0121,32.8862 L524.5091,35.1242 C524.2791,33.4022 523.7621,31.8532 522.9591,30.4762 C522.1551,29.0982 521.0231,28.0092 519.5591,27.2042 C518.0951,26.4012 516.2731,25.9992 514.0921,25.9992 C511.9111,25.9992 509.9451,26.4722 508.1951,27.4192 C506.4441,28.3662 505.0661,29.7732 504.0631,31.6372 C503.0581,33.5032 502.5571,35.7852 502.5571,38.4822 L502.5571,39.3422 C502.5571,42.0402 503.0581,44.3222 504.0631,46.1862 C505.0661,48.0522 506.4441,49.4582 508.1951,50.4042 C509.9451,51.3512 511.9111,51.8252 514.0921,51.8252 C517.3641,51.8252 519.8461,50.9792 521.5391,49.2852 C523.2311,47.5932 524.3071,45.3682 524.7671,42.6132 L535.2701,45.1102 C534.5231,48.1532 533.2471,50.9222 531.4391,53.4172 C529.6311,55.9142 527.2641,57.8812 524.3371,59.3152 C521.4091,60.7492 517.9081,61.4672 513.8341,61.4672" id="Fill-14"></path>
                <path d="M542.2699,60.2616 L542.2699,0.0006 L553.1169,0.0006 L553.1169,22.8136 L554.6669,22.8136 C555.1249,21.8966 555.8419,20.9776 556.8189,20.0586 C557.7939,19.1416 559.0999,18.3806 560.7349,17.7776 C562.3719,17.1746 564.4509,16.8736 566.9769,16.8736 C570.3049,16.8736 573.2179,17.6356 575.7149,19.1556 C578.2119,20.6766 580.1479,22.7706 581.5259,25.4396 C582.9039,28.1076 583.5919,31.2216 583.5919,34.7796 L583.5919,60.2616 L572.7449,60.2616 L572.7449,35.6406 C572.7449,32.4276 571.9549,30.0166 570.3769,28.4086 C568.7979,26.8036 566.5469,25.9986 563.6189,25.9986 C560.2899,25.9986 557.7079,27.1046 555.8719,29.3136 C554.0339,31.5236 553.1169,34.6076 553.1169,38.5686 L553.1169,60.2616 L542.2699,60.2616 Z" id="Fill-15"></path>
            </g>
        </g>
    </g>
</svg>