<?xml version="1.0" encoding="utf-8"?>
<!-- Generator: Adobe Illustrator 27.8.0, SVG Export Plug-In . SVG Version: 6.00 Build 0)  -->
<svg version="1.1" id="Ebene_1" xmlns="http://www.w3.org/2000/svg" xmlns:xlink="http://www.w3.org/1999/xlink" x="0px" y="0px"
	 viewBox="0 0 244 245" style="enable-background:new 0 0 244 245;" xml:space="preserve">
<style type="text/css">
	.st0{fill:#0FD070;}
	.st1{fill:#FFFFFF;}
</style>
<circle class="st0" cx="122" cy="122" r="122"/>
<g id="Ebene_2_00000036239955644855844570000004653789701556701368_">
</g>
<path class="st1" d="M94.2,116.5H82.1V49.7h12.1V116.5z M131.4,105.6c-2.3,3.9-5.1,6.9-8.7,8.9c-3.6,2.1-7.5,3-11.7,3
	c-4.1,0-7.8-1.1-10.9-3.1c-3.2-2.1-5.7-5.1-7.5-9.1c-1.9-3.9-2.7-8.6-2.7-13.9c0-5.4,1-10.1,2.7-14c1.9-3.9,4.4-6.9,7.5-8.9
	c3.2-2.1,6.8-3.1,10.9-3.1c4.2,0,8,1,11.7,3c3.6,2.1,6.6,4.9,8.7,8.8c2.3,3.9,3.3,8.6,3.3,14.1C134.8,97.1,133.7,101.8,131.4,105.6z
	 M120.1,83c-1.3-2.2-3-4-5.2-5.1c-2.2-1.2-4.6-1.7-7.1-1.7c-2.2,0-4.3,0.6-6.5,1.7s-3.8,2.9-5.1,5.1c-1.4,2.2-2,5-2,8.1
	c0,3.1,0.6,5.9,2,8.1c1.3,2.2,3,4,5.1,5.1s4.2,1.7,6.5,1.7c2.5,0,4.9-0.6,7.1-1.7c2.2-1.2,3.9-2.9,5.2-5.1c1.3-2.2,1.9-4.9,1.9-8
	C122,88,121.3,85.3,120.1,83z"/>
<path class="st1" d="M95.6,168.6c0.8,1.1,1.8,1.9,3.2,2.5c1.3,0.6,2.8,0.9,4.5,0.9c2.3,0,4.4-0.5,6.3-1.4c1.8-0.9,3.3-2.2,4.5-4
	c1.2-1.7,1.7-3.9,1.7-6.4l1.8,6.7c0,3.2-0.9,6.1-2.8,8.3s-4.4,4-7.3,5c-3,1.1-6,1.7-9.3,1.7c-3.3,0-6.4-0.6-9.3-1.9
	c-2.8-1.2-5.1-3.1-7-5.6c-1.8-2.4-2.6-5.4-2.6-9c0-5,1.8-9,5.4-11.8c3.6-2.9,8.8-4.4,15.4-4.4c3.3,0,6.4,0.4,9,1
	c2.6,0.6,4.8,1.5,6.6,2.5c1.8,1,3.1,1.9,3.9,2.7v6.7c-2.1-1.5-4.4-2.6-7-3.4s-5.3-1.1-8.1-1.1c-2.3,0-4.2,0.2-5.7,0.9
	c-1.4,0.6-2.6,1.4-3.2,2.4c-0.6,1-1,2.2-1,3.7C94.4,166.1,94.8,167.5,95.6,168.6z M83.1,133.8c2.8-1.4,6.2-2.7,10.2-4.1
	c4-1.2,8.5-2,13.4-2c4.5,0,8.6,0.6,12.2,1.9c3.6,1.2,6.3,3.1,8.4,5.6c2.1,2.5,3,5.4,3,9v36.5h-14.4v-33.5c0-1.4-0.3-2.6-0.6-3.6
	c-0.5-1-1.2-1.9-2.2-2.5c-1-0.6-2.1-1.1-3.5-1.5c-1.3-0.2-2.8-0.5-4.4-0.5c-2.4,0-4.9,0.2-7.1,0.7c-2.2,0.5-4.1,1.1-5.8,1.9
	s-2.8,1.4-3.6,1.9L83.1,133.8z"/>
<path class="st1" d="M146.1,102.5c1.8-1.5,3.9-2.3,6.4-2.3c2.4,0,4.6,0.8,6.3,2.3c1.8,1.5,2.6,3.6,2.6,6s-0.9,4.4-2.6,6
	c-1.7,1.7-3.9,2.4-6.3,2.4s-4.6-0.8-6.4-2.4s-2.7-3.6-2.7-6C143.4,106.1,144.3,104.1,146.1,102.5z M159.7,129.2v53.3h-14.5v-53.3
	H159.7z"/>
</svg>
